<mxfile host="app.diagrams.net" modified="2023-05-01T22:36:29.912Z" agent="Mozilla/5.0 (X11; Linux x86_64) AppleWebKit/537.36 (KHTML, like Gecko) Chrome/111.0.0.0 Safari/537.36" etag="6d-Wt17g69DlDV3KdO3l" version="21.2.3" type="device">
  <diagram name="Page-1" id="C4dqYCwJqd82L6SdNkTd">
    <mxGraphModel dx="1687" dy="996" grid="0" gridSize="10" guides="1" tooltips="1" connect="1" arrows="1" fold="1" page="0" pageScale="1" pageWidth="827" pageHeight="1169" background="#ffffff" math="0" shadow="0">
      <root>
        <mxCell id="0" />
        <mxCell id="1" parent="0" />
        <mxCell id="DjSslWO9v3M0GokMwDH--1" value="Activity Diagram for Attendance Assistant" style="text;html=1;align=center;verticalAlign=middle;resizable=0;points=[];autosize=1;strokeColor=none;fillColor=none;fontSize=20;labelBackgroundColor=none;fontColor=#393C56;fontFamily=Product Sans;fontSource=https%3A%2F%2Ffonts.googleapis.com%2Fcss%3Ffamily%3DProduct%2BSans;" parent="1" vertex="1">
          <mxGeometry x="267" y="32" width="380" height="36" as="geometry" />
        </mxCell>
        <mxCell id="DjSslWO9v3M0GokMwDH--2" value="" style="ellipse;html=1;shape=startState;fillColor=#F2CC8F;strokeColor=#E07A5F;fontColor=#393C56;fontSize=14;labelBackgroundColor=none;fontFamily=Product Sans;fontSource=https%3A%2F%2Ffonts.googleapis.com%2Fcss%3Ffamily%3DProduct%2BSans;" parent="1" vertex="1">
          <mxGeometry x="61" y="80" width="58" height="54" as="geometry" />
        </mxCell>
        <mxCell id="DjSslWO9v3M0GokMwDH--3" value="" style="edgeStyle=orthogonalEdgeStyle;html=1;verticalAlign=bottom;endArrow=open;endSize=8;strokeColor=#E07A5F;rounded=0;fontColor=default;fillColor=#F2CC8F;entryX=0.5;entryY=0;entryDx=0;entryDy=0;entryPerimeter=0;fontSize=14;labelBackgroundColor=none;fontFamily=Product Sans;fontSource=https%3A%2F%2Ffonts.googleapis.com%2Fcss%3Ffamily%3DProduct%2BSans;" parent="1" source="DjSslWO9v3M0GokMwDH--2" target="DjSslWO9v3M0GokMwDH--5" edge="1">
          <mxGeometry relative="1" as="geometry">
            <mxPoint x="85" y="200" as="targetPoint" />
          </mxGeometry>
        </mxCell>
        <mxCell id="DjSslWO9v3M0GokMwDH--4" value="Start" style="text;html=1;align=center;verticalAlign=middle;resizable=0;points=[];autosize=1;strokeColor=none;fillColor=none;fontColor=#393C56;fontSize=14;labelBackgroundColor=none;fontFamily=Product Sans;fontSource=https%3A%2F%2Ffonts.googleapis.com%2Fcss%3Ffamily%3DProduct%2BSans;" parent="1" vertex="1">
          <mxGeometry x="66" y="92.5" width="48" height="29" as="geometry" />
        </mxCell>
        <mxCell id="DjSslWO9v3M0GokMwDH--9" style="edgeStyle=orthogonalEdgeStyle;rounded=0;orthogonalLoop=1;jettySize=auto;html=1;entryX=0.5;entryY=1;entryDx=0;entryDy=0;strokeColor=#E07A5F;fontColor=default;fillColor=#F2CC8F;fontSize=14;labelBackgroundColor=none;fontFamily=Product Sans;fontSource=https%3A%2F%2Ffonts.googleapis.com%2Fcss%3Ffamily%3DProduct%2BSans;" parent="1" source="DjSslWO9v3M0GokMwDH--5" target="DjSslWO9v3M0GokMwDH--6" edge="1">
          <mxGeometry x="-0.2432" y="-4" relative="1" as="geometry">
            <Array as="points">
              <mxPoint x="344" y="235" />
            </Array>
            <mxPoint as="offset" />
          </mxGeometry>
        </mxCell>
        <mxCell id="DjSslWO9v3M0GokMwDH--5" value="Check Connection to Internet&lt;br style=&quot;font-size: 14px;&quot;&gt;And Database" style="points=[[0.25,0,0],[0.5,0,0],[0.75,0,0],[1,0.25,0],[1,0.5,0],[1,0.75,0],[0.75,1,0],[0.5,1,0],[0.25,1,0],[0,0.75,0],[0,0.5,0],[0,0.25,0]];shape=mxgraph.bpmn.task;whiteSpace=wrap;rectStyle=rounded;size=10;html=1;container=1;expand=0;collapsible=0;bpmnShapeType=call;strokeColor=#E07A5F;fontColor=#393C56;fillColor=#F2CC8F;fontSize=14;labelBackgroundColor=none;fontFamily=Product Sans;fontSource=https%3A%2F%2Ffonts.googleapis.com%2Fcss%3Ffamily%3DProduct%2BSans;" parent="1" vertex="1">
          <mxGeometry x="40" y="200" width="200" height="60" as="geometry" />
        </mxCell>
        <mxCell id="DjSslWO9v3M0GokMwDH--6" value="Condition" style="rhombus;whiteSpace=wrap;html=1;fontColor=#393C56;fillColor=#F2CC8F;strokeColor=#E07A5F;fontSize=14;labelBackgroundColor=none;fontFamily=Product Sans;fontSource=https%3A%2F%2Ffonts.googleapis.com%2Fcss%3Ffamily%3DProduct%2BSans;" parent="1" vertex="1">
          <mxGeometry x="300" y="146" width="88" height="58" as="geometry" />
        </mxCell>
        <mxCell id="DjSslWO9v3M0GokMwDH--7" value="no" style="edgeStyle=orthogonalEdgeStyle;html=1;align=left;verticalAlign=bottom;endArrow=open;endSize=8;strokeColor=#E07A5F;rounded=0;fontColor=default;fillColor=#F2CC8F;entryX=0.75;entryY=0;entryDx=0;entryDy=0;entryPerimeter=0;fontSize=14;labelBackgroundColor=none;fontFamily=Product Sans;fontSource=https%3A%2F%2Ffonts.googleapis.com%2Fcss%3Ffamily%3DProduct%2BSans;" parent="1" source="DjSslWO9v3M0GokMwDH--6" target="DjSslWO9v3M0GokMwDH--5" edge="1">
          <mxGeometry x="-0.8316" y="-10" relative="1" as="geometry">
            <mxPoint x="530" y="220" as="targetPoint" />
            <Array as="points">
              <mxPoint x="340" y="130" />
              <mxPoint x="190" y="130" />
            </Array>
            <mxPoint as="offset" />
          </mxGeometry>
        </mxCell>
        <mxCell id="DjSslWO9v3M0GokMwDH--8" value="yes" style="edgeStyle=orthogonalEdgeStyle;html=1;align=left;verticalAlign=top;endArrow=open;endSize=8;strokeColor=#E07A5F;rounded=0;fontColor=default;fillColor=#F2CC8F;entryX=0.5;entryY=0;entryDx=0;entryDy=0;entryPerimeter=0;fontSize=14;labelBackgroundColor=none;fontFamily=Product Sans;fontSource=https%3A%2F%2Ffonts.googleapis.com%2Fcss%3Ffamily%3DProduct%2BSans;" parent="1" source="DjSslWO9v3M0GokMwDH--6" target="DjSslWO9v3M0GokMwDH--10" edge="1">
          <mxGeometry x="-0.7037" y="10" relative="1" as="geometry">
            <mxPoint x="390" y="300" as="targetPoint" />
            <mxPoint as="offset" />
          </mxGeometry>
        </mxCell>
        <mxCell id="DjSslWO9v3M0GokMwDH--14" style="edgeStyle=orthogonalEdgeStyle;rounded=0;orthogonalLoop=1;jettySize=auto;html=1;strokeColor=#E07A5F;fontColor=default;fillColor=#F2CC8F;fontSize=14;labelBackgroundColor=none;fontFamily=Product Sans;fontSource=https%3A%2F%2Ffonts.googleapis.com%2Fcss%3Ffamily%3DProduct%2BSans;" parent="1" source="DjSslWO9v3M0GokMwDH--10" target="DjSslWO9v3M0GokMwDH--12" edge="1">
          <mxGeometry relative="1" as="geometry" />
        </mxCell>
        <mxCell id="nWQ7CsiZABoYEHih55I9-5" style="edgeStyle=orthogonalEdgeStyle;rounded=0;orthogonalLoop=1;jettySize=auto;html=1;entryX=1;entryY=0.5;entryDx=0;entryDy=0;entryPerimeter=0;strokeColor=#E07A5F;fontColor=default;fillColor=#F2CC8F;fontFamily=Product Sans;fontSource=https%3A%2F%2Ffonts.googleapis.com%2Fcss%3Ffamily%3DProduct%2BSans;fontSize=14;labelBackgroundColor=none;" edge="1" parent="1" source="DjSslWO9v3M0GokMwDH--10" target="DjSslWO9v3M0GokMwDH--21">
          <mxGeometry relative="1" as="geometry">
            <Array as="points">
              <mxPoint x="760" y="235" />
              <mxPoint x="760" y="576" />
            </Array>
          </mxGeometry>
        </mxCell>
        <mxCell id="DjSslWO9v3M0GokMwDH--10" value="User Starts Logging in" style="points=[[0.25,0,0],[0.5,0,0],[0.75,0,0],[1,0.25,0],[1,0.5,0],[1,0.75,0],[0.75,1,0],[0.5,1,0],[0.25,1,0],[0,0.75,0],[0,0.5,0],[0,0.25,0]];shape=mxgraph.bpmn.task;whiteSpace=wrap;rectStyle=rounded;size=10;html=1;container=1;expand=0;collapsible=0;bpmnShapeType=call;strokeColor=#E07A5F;fontColor=#393C56;fillColor=#F2CC8F;fontSize=14;labelBackgroundColor=none;fontFamily=Product Sans;fontSource=https%3A%2F%2Ffonts.googleapis.com%2Fcss%3Ffamily%3DProduct%2BSans;" parent="1" vertex="1">
          <mxGeometry x="510" y="210" width="170" height="50" as="geometry" />
        </mxCell>
        <mxCell id="DjSslWO9v3M0GokMwDH--19" style="edgeStyle=orthogonalEdgeStyle;rounded=0;orthogonalLoop=1;jettySize=auto;html=1;entryX=0.5;entryY=0;entryDx=0;entryDy=0;entryPerimeter=0;strokeColor=#E07A5F;fontColor=default;fillColor=#F2CC8F;fontSize=14;labelBackgroundColor=none;fontFamily=Product Sans;fontSource=https%3A%2F%2Ffonts.googleapis.com%2Fcss%3Ffamily%3DProduct%2BSans;" parent="1" source="DjSslWO9v3M0GokMwDH--12" target="DjSslWO9v3M0GokMwDH--18" edge="1">
          <mxGeometry relative="1" as="geometry" />
        </mxCell>
        <mxCell id="DjSslWO9v3M0GokMwDH--20" style="edgeStyle=orthogonalEdgeStyle;rounded=0;orthogonalLoop=1;jettySize=auto;html=1;strokeColor=#E07A5F;fontColor=default;fillColor=#F2CC8F;fontSize=14;labelBackgroundColor=none;fontFamily=Product Sans;fontSource=https%3A%2F%2Ffonts.googleapis.com%2Fcss%3Ffamily%3DProduct%2BSans;" parent="1" source="DjSslWO9v3M0GokMwDH--12" target="DjSslWO9v3M0GokMwDH--17" edge="1">
          <mxGeometry relative="1" as="geometry" />
        </mxCell>
        <mxCell id="DjSslWO9v3M0GokMwDH--12" value="" style="shape=line;html=1;strokeWidth=6;strokeColor=#E07A5F;fontColor=#393C56;fillColor=#F2CC8F;fontSize=14;labelBackgroundColor=none;fontFamily=Product Sans;fontSource=https%3A%2F%2Ffonts.googleapis.com%2Fcss%3Ffamily%3DProduct%2BSans;" parent="1" vertex="1">
          <mxGeometry x="280" y="340" width="200" height="10" as="geometry" />
        </mxCell>
        <mxCell id="DjSslWO9v3M0GokMwDH--15" value="User Forgets &lt;br style=&quot;font-size: 14px;&quot;&gt;Password" style="text;html=1;align=center;verticalAlign=middle;resizable=0;points=[];autosize=1;strokeColor=none;fillColor=none;fontColor=#393C56;fontSize=14;labelBackgroundColor=none;fontFamily=Product Sans;fontSource=https%3A%2F%2Ffonts.googleapis.com%2Fcss%3Ffamily%3DProduct%2BSans;" parent="1" vertex="1">
          <mxGeometry x="386" y="283" width="95" height="46" as="geometry" />
        </mxCell>
        <mxCell id="DjSslWO9v3M0GokMwDH--16" value="User is a &lt;br style=&quot;font-size: 14px;&quot;&gt;New User" style="text;html=1;align=center;verticalAlign=middle;resizable=0;points=[];autosize=1;strokeColor=none;fillColor=none;fontColor=#393C56;fontSize=14;labelBackgroundColor=none;fontFamily=Product Sans;fontSource=https%3A%2F%2Ffonts.googleapis.com%2Fcss%3Ffamily%3DProduct%2BSans;" parent="1" vertex="1">
          <mxGeometry x="292" y="283" width="76" height="46" as="geometry" />
        </mxCell>
        <mxCell id="DjSslWO9v3M0GokMwDH--22" style="edgeStyle=orthogonalEdgeStyle;rounded=0;orthogonalLoop=1;jettySize=auto;html=1;strokeColor=#E07A5F;fontColor=default;fillColor=#F2CC8F;entryX=0.5;entryY=1;entryDx=0;entryDy=0;entryPerimeter=0;labelBackgroundColor=none;fontFamily=Product Sans;fontSource=https%3A%2F%2Ffonts.googleapis.com%2Fcss%3Ffamily%3DProduct%2BSans;fontSize=14;" parent="1" source="DjSslWO9v3M0GokMwDH--17" target="DjSslWO9v3M0GokMwDH--10" edge="1">
          <mxGeometry relative="1" as="geometry">
            <mxPoint x="730" y="330" as="targetPoint" />
            <Array as="points">
              <mxPoint x="225" y="530" />
              <mxPoint x="670" y="530" />
              <mxPoint x="670" y="330" />
              <mxPoint x="595" y="330" />
            </Array>
          </mxGeometry>
        </mxCell>
        <mxCell id="DjSslWO9v3M0GokMwDH--17" value="Signup" style="points=[[0.25,0,0],[0.5,0,0],[0.75,0,0],[1,0.25,0],[1,0.5,0],[1,0.75,0],[0.75,1,0],[0.5,1,0],[0.25,1,0],[0,0.75,0],[0,0.5,0],[0,0.25,0]];shape=mxgraph.bpmn.task;whiteSpace=wrap;rectStyle=rounded;size=10;html=1;container=1;expand=0;collapsible=0;bpmnShapeType=call;strokeColor=#E07A5F;fontColor=#393C56;fillColor=#F2CC8F;fontSize=14;labelBackgroundColor=none;fontFamily=Product Sans;fontSource=https%3A%2F%2Ffonts.googleapis.com%2Fcss%3Ffamily%3DProduct%2BSans;" parent="1" vertex="1">
          <mxGeometry x="150" y="443.5" width="150" height="43.5" as="geometry" />
        </mxCell>
        <mxCell id="DjSslWO9v3M0GokMwDH--18" value="Forgot Password Screen" style="points=[[0.25,0,0],[0.5,0,0],[0.75,0,0],[1,0.25,0],[1,0.5,0],[1,0.75,0],[0.75,1,0],[0.5,1,0],[0.25,1,0],[0,0.75,0],[0,0.5,0],[0,0.25,0]];shape=mxgraph.bpmn.task;whiteSpace=wrap;rectStyle=rounded;size=10;html=1;container=1;expand=0;collapsible=0;bpmnShapeType=call;strokeColor=#E07A5F;fontColor=#393C56;fillColor=#F2CC8F;fontSize=14;labelBackgroundColor=none;fontFamily=Product Sans;fontSource=https%3A%2F%2Ffonts.googleapis.com%2Fcss%3Ffamily%3DProduct%2BSans;" parent="1" vertex="1">
          <mxGeometry x="475" y="443.5" width="172" height="41.5" as="geometry" />
        </mxCell>
        <mxCell id="nWQ7CsiZABoYEHih55I9-13" style="edgeStyle=orthogonalEdgeStyle;rounded=0;orthogonalLoop=1;jettySize=auto;html=1;entryX=0.49;entryY=0.4;entryDx=0;entryDy=0;entryPerimeter=0;strokeColor=#E07A5F;fontColor=default;fillColor=#F2CC8F;fontFamily=Product Sans;fontSource=https%3A%2F%2Ffonts.googleapis.com%2Fcss%3Ffamily%3DProduct%2BSans;fontSize=14;labelBackgroundColor=none;" edge="1" parent="1" source="DjSslWO9v3M0GokMwDH--21" target="nWQ7CsiZABoYEHih55I9-3">
          <mxGeometry relative="1" as="geometry" />
        </mxCell>
        <mxCell id="DjSslWO9v3M0GokMwDH--21" value="Record Data and Display it" style="points=[[0.25,0,0],[0.5,0,0],[0.75,0,0],[1,0.25,0],[1,0.5,0],[1,0.75,0],[0.75,1,0],[0.5,1,0],[0.25,1,0],[0,0.75,0],[0,0.5,0],[0,0.25,0]];shape=mxgraph.bpmn.task;whiteSpace=wrap;rectStyle=rounded;size=10;html=1;container=1;expand=0;collapsible=0;bpmnShapeType=call;strokeColor=#E07A5F;fontColor=#393C56;fillColor=#F2CC8F;labelBackgroundColor=none;fontFamily=Product Sans;fontSource=https%3A%2F%2Ffonts.googleapis.com%2Fcss%3Ffamily%3DProduct%2BSans;fontSize=14;" parent="1" vertex="1">
          <mxGeometry x="349" y="547" width="260" height="60" as="geometry" />
        </mxCell>
        <mxCell id="DjSslWO9v3M0GokMwDH--24" value="Login Success" style="text;html=1;align=center;verticalAlign=middle;resizable=0;points=[];autosize=1;strokeColor=none;fillColor=none;fontColor=#393C56;labelBackgroundColor=none;fontFamily=Product Sans;fontSource=https%3A%2F%2Ffonts.googleapis.com%2Fcss%3Ffamily%3DProduct%2BSans;fontSize=14;" parent="1" vertex="1">
          <mxGeometry x="708" y="203" width="104" height="29" as="geometry" />
        </mxCell>
        <mxCell id="DjSslWO9v3M0GokMwDH--25" value="Failed" style="text;html=1;align=center;verticalAlign=middle;resizable=0;points=[];autosize=1;strokeColor=none;fillColor=none;fontColor=#393C56;labelBackgroundColor=none;fontFamily=Product Sans;fontSource=https%3A%2F%2Ffonts.googleapis.com%2Fcss%3Ffamily%3DProduct%2BSans;fontSize=14;" parent="1" vertex="1">
          <mxGeometry x="390" y="243" width="54" height="29" as="geometry" />
        </mxCell>
        <mxCell id="nWQ7CsiZABoYEHih55I9-14" style="edgeStyle=orthogonalEdgeStyle;rounded=0;orthogonalLoop=1;jettySize=auto;html=1;strokeColor=#E07A5F;fontColor=default;fillColor=#F2CC8F;fontFamily=Product Sans;fontSource=https%3A%2F%2Ffonts.googleapis.com%2Fcss%3Ffamily%3DProduct%2BSans;fontSize=14;labelBackgroundColor=none;" edge="1" parent="1" source="nWQ7CsiZABoYEHih55I9-3" target="nWQ7CsiZABoYEHih55I9-10">
          <mxGeometry relative="1" as="geometry" />
        </mxCell>
        <mxCell id="nWQ7CsiZABoYEHih55I9-15" style="edgeStyle=orthogonalEdgeStyle;rounded=0;orthogonalLoop=1;jettySize=auto;html=1;strokeColor=#E07A5F;fontColor=default;fillColor=#F2CC8F;fontFamily=Product Sans;fontSource=https%3A%2F%2Ffonts.googleapis.com%2Fcss%3Ffamily%3DProduct%2BSans;fontSize=14;labelBackgroundColor=none;" edge="1" parent="1" source="nWQ7CsiZABoYEHih55I9-3" target="nWQ7CsiZABoYEHih55I9-12">
          <mxGeometry relative="1" as="geometry" />
        </mxCell>
        <mxCell id="nWQ7CsiZABoYEHih55I9-3" value="" style="shape=line;html=1;strokeWidth=6;strokeColor=#E07A5F;fontColor=#393C56;fillColor=#F2CC8F;fontFamily=Product Sans;fontSource=https%3A%2F%2Ffonts.googleapis.com%2Fcss%3Ffamily%3DProduct%2BSans;fontSize=14;labelBackgroundColor=none;" vertex="1" parent="1">
          <mxGeometry x="381" y="663" width="200" height="10" as="geometry" />
        </mxCell>
        <mxCell id="nWQ7CsiZABoYEHih55I9-16" style="edgeStyle=orthogonalEdgeStyle;rounded=0;orthogonalLoop=1;jettySize=auto;html=1;entryX=0;entryY=0.5;entryDx=0;entryDy=0;entryPerimeter=0;strokeColor=#E07A5F;fontColor=default;fillColor=#F2CC8F;fontFamily=Product Sans;fontSource=https%3A%2F%2Ffonts.googleapis.com%2Fcss%3Ffamily%3DProduct%2BSans;fontSize=14;labelBackgroundColor=none;" edge="1" parent="1" source="nWQ7CsiZABoYEHih55I9-10" target="DjSslWO9v3M0GokMwDH--21">
          <mxGeometry relative="1" as="geometry">
            <Array as="points">
              <mxPoint x="120" y="788" />
              <mxPoint x="120" y="577" />
            </Array>
          </mxGeometry>
        </mxCell>
        <mxCell id="nWQ7CsiZABoYEHih55I9-10" value="Fetch Comments from DB" style="points=[[0.25,0,0],[0.5,0,0],[0.75,0,0],[1,0.25,0],[1,0.5,0],[1,0.75,0],[0.75,1,0],[0.5,1,0],[0.25,1,0],[0,0.75,0],[0,0.5,0],[0,0.25,0]];shape=mxgraph.bpmn.task;whiteSpace=wrap;rectStyle=rounded;size=10;html=1;container=1;expand=0;collapsible=0;bpmnShapeType=call;strokeColor=#E07A5F;fontColor=#393C56;fillColor=#F2CC8F;labelBackgroundColor=none;fontFamily=Product Sans;fontSource=https%3A%2F%2Ffonts.googleapis.com%2Fcss%3Ffamily%3DProduct%2BSans;fontSize=14;" vertex="1" parent="1">
          <mxGeometry x="176" y="759" width="250" height="50" as="geometry" />
        </mxCell>
        <mxCell id="nWQ7CsiZABoYEHih55I9-31" style="edgeStyle=orthogonalEdgeStyle;rounded=0;orthogonalLoop=1;jettySize=auto;html=1;strokeColor=#E07A5F;fontColor=default;fillColor=#F2CC8F;fontFamily=Product Sans;fontSource=https%3A%2F%2Ffonts.googleapis.com%2Fcss%3Ffamily%3DProduct%2BSans;fontSize=14;labelBackgroundColor=none;" edge="1" parent="1" source="nWQ7CsiZABoYEHih55I9-12" target="nWQ7CsiZABoYEHih55I9-30">
          <mxGeometry relative="1" as="geometry" />
        </mxCell>
        <mxCell id="nWQ7CsiZABoYEHih55I9-12" value="Camera Capture" style="points=[[0.25,0,0],[0.5,0,0],[0.75,0,0],[1,0.25,0],[1,0.5,0],[1,0.75,0],[0.75,1,0],[0.5,1,0],[0.25,1,0],[0,0.75,0],[0,0.5,0],[0,0.25,0]];shape=mxgraph.bpmn.task;whiteSpace=wrap;rectStyle=rounded;size=10;html=1;container=1;expand=0;collapsible=0;bpmnShapeType=call;strokeColor=#E07A5F;fontColor=#393C56;fillColor=#F2CC8F;labelBackgroundColor=none;fontFamily=Product Sans;fontSource=https%3A%2F%2Ffonts.googleapis.com%2Fcss%3Ffamily%3DProduct%2BSans;fontSize=14;" vertex="1" parent="1">
          <mxGeometry x="536" y="759" width="250" height="50" as="geometry" />
        </mxCell>
        <mxCell id="nWQ7CsiZABoYEHih55I9-17" value="Go back" style="text;html=1;align=center;verticalAlign=middle;resizable=0;points=[];autosize=1;strokeColor=none;fillColor=none;fontColor=#393C56;fontFamily=Product Sans;fontSource=https%3A%2F%2Ffonts.googleapis.com%2Fcss%3Ffamily%3DProduct%2BSans;fontSize=14;labelBackgroundColor=none;" vertex="1" parent="1">
          <mxGeometry x="44" y="647" width="69" height="29" as="geometry" />
        </mxCell>
        <mxCell id="nWQ7CsiZABoYEHih55I9-18" value="User goes to Comments page" style="text;html=1;align=center;verticalAlign=middle;resizable=0;points=[];autosize=1;strokeColor=none;fillColor=none;fontColor=#393C56;fontFamily=Product Sans;fontSource=https%3A%2F%2Ffonts.googleapis.com%2Fcss%3Ffamily%3DProduct%2BSans;fontSize=14;labelBackgroundColor=none;" vertex="1" parent="1">
          <mxGeometry x="283.5" y="681" width="199" height="29" as="geometry" />
        </mxCell>
        <mxCell id="nWQ7CsiZABoYEHih55I9-19" value="User wants to take Attendence" style="text;html=1;align=center;verticalAlign=middle;resizable=0;points=[];autosize=1;strokeColor=none;fillColor=none;fontColor=#393C56;fontFamily=Product Sans;fontSource=https%3A%2F%2Ffonts.googleapis.com%2Fcss%3Ffamily%3DProduct%2BSans;fontSize=14;labelBackgroundColor=none;" vertex="1" parent="1">
          <mxGeometry x="500" y="681" width="204" height="29" as="geometry" />
        </mxCell>
        <mxCell id="nWQ7CsiZABoYEHih55I9-27" style="edgeStyle=orthogonalEdgeStyle;rounded=0;orthogonalLoop=1;jettySize=auto;html=1;strokeColor=#E07A5F;fontColor=default;fillColor=#F2CC8F;fontFamily=Product Sans;fontSource=https%3A%2F%2Ffonts.googleapis.com%2Fcss%3Ffamily%3DProduct%2BSans;fontSize=14;labelBackgroundColor=none;" edge="1" parent="1" source="nWQ7CsiZABoYEHih55I9-22" target="nWQ7CsiZABoYEHih55I9-25">
          <mxGeometry relative="1" as="geometry" />
        </mxCell>
        <mxCell id="nWQ7CsiZABoYEHih55I9-35" style="edgeStyle=orthogonalEdgeStyle;rounded=0;orthogonalLoop=1;jettySize=auto;html=1;strokeColor=#E07A5F;fontColor=default;fillColor=#F2CC8F;fontFamily=Product Sans;fontSource=https%3A%2F%2Ffonts.googleapis.com%2Fcss%3Ffamily%3DProduct%2BSans;fontSize=14;labelBackgroundColor=none;" edge="1" parent="1" source="nWQ7CsiZABoYEHih55I9-22" target="DjSslWO9v3M0GokMwDH--21">
          <mxGeometry relative="1" as="geometry">
            <Array as="points">
              <mxPoint x="493" y="940" />
              <mxPoint x="887" y="940" />
              <mxPoint x="887" y="577" />
            </Array>
          </mxGeometry>
        </mxCell>
        <mxCell id="nWQ7CsiZABoYEHih55I9-22" value="Upload Results to Database" style="points=[[0.25,0,0],[0.5,0,0],[0.75,0,0],[1,0.25,0],[1,0.5,0],[1,0.75,0],[0.75,1,0],[0.5,1,0],[0.25,1,0],[0,0.75,0],[0,0.5,0],[0,0.25,0]];shape=mxgraph.bpmn.task;whiteSpace=wrap;rectStyle=rounded;size=10;html=1;container=1;expand=0;collapsible=0;bpmnShapeType=call;strokeColor=#E07A5F;fontColor=#393C56;fillColor=#F2CC8F;labelBackgroundColor=none;fontFamily=Product Sans;fontSource=https%3A%2F%2Ffonts.googleapis.com%2Fcss%3Ffamily%3DProduct%2BSans;fontSize=14;" vertex="1" parent="1">
          <mxGeometry x="368" y="968" width="250" height="50" as="geometry" />
        </mxCell>
        <mxCell id="nWQ7CsiZABoYEHih55I9-25" value="" style="ellipse;html=1;shape=endState;fillColor=#F2CC8F;strokeColor=#E07A5F;fontColor=#393C56;fontFamily=Product Sans;fontSource=https%3A%2F%2Ffonts.googleapis.com%2Fcss%3Ffamily%3DProduct%2BSans;fontSize=14;labelBackgroundColor=none;" vertex="1" parent="1">
          <mxGeometry x="726" y="971" width="75" height="75" as="geometry" />
        </mxCell>
        <mxCell id="nWQ7CsiZABoYEHih55I9-26" value="Quit" style="text;html=1;align=center;verticalAlign=middle;resizable=0;points=[];autosize=1;strokeColor=none;fillColor=none;fontColor=#393C56;fontFamily=Product Sans;fontSource=https%3A%2F%2Ffonts.googleapis.com%2Fcss%3Ffamily%3DProduct%2BSans;fontSize=14;labelBackgroundColor=none;" vertex="1" parent="1">
          <mxGeometry x="737.5" y="1058" width="45" height="29" as="geometry" />
        </mxCell>
        <mxCell id="nWQ7CsiZABoYEHih55I9-33" style="edgeStyle=orthogonalEdgeStyle;rounded=0;orthogonalLoop=1;jettySize=auto;html=1;strokeColor=#E07A5F;fontColor=default;fillColor=#F2CC8F;fontFamily=Product Sans;fontSource=https%3A%2F%2Ffonts.googleapis.com%2Fcss%3Ffamily%3DProduct%2BSans;fontSize=14;labelBackgroundColor=none;" edge="1" parent="1" source="nWQ7CsiZABoYEHih55I9-30" target="nWQ7CsiZABoYEHih55I9-32">
          <mxGeometry relative="1" as="geometry" />
        </mxCell>
        <mxCell id="nWQ7CsiZABoYEHih55I9-30" value="Download Images" style="points=[[0.25,0,0],[0.5,0,0],[0.75,0,0],[1,0.25,0],[1,0.5,0],[1,0.75,0],[0.75,1,0],[0.5,1,0],[0.25,1,0],[0,0.75,0],[0,0.5,0],[0,0.25,0]];shape=mxgraph.bpmn.task;whiteSpace=wrap;rectStyle=rounded;size=10;html=1;container=1;expand=0;collapsible=0;bpmnShapeType=call;strokeColor=#E07A5F;fontColor=#393C56;fillColor=#F2CC8F;labelBackgroundColor=none;fontFamily=Product Sans;fontSource=https%3A%2F%2Ffonts.googleapis.com%2Fcss%3Ffamily%3DProduct%2BSans;fontSize=14;" vertex="1" parent="1">
          <mxGeometry x="536" y="852" width="250" height="50" as="geometry" />
        </mxCell>
        <mxCell id="nWQ7CsiZABoYEHih55I9-34" style="edgeStyle=orthogonalEdgeStyle;rounded=0;orthogonalLoop=1;jettySize=auto;html=1;entryX=0;entryY=0.5;entryDx=0;entryDy=0;entryPerimeter=0;strokeColor=#E07A5F;fontColor=default;fillColor=#F2CC8F;fontFamily=Product Sans;fontSource=https%3A%2F%2Ffonts.googleapis.com%2Fcss%3Ffamily%3DProduct%2BSans;fontSize=14;labelBackgroundColor=none;" edge="1" parent="1" source="nWQ7CsiZABoYEHih55I9-32" target="nWQ7CsiZABoYEHih55I9-22">
          <mxGeometry relative="1" as="geometry" />
        </mxCell>
        <mxCell id="nWQ7CsiZABoYEHih55I9-32" value="Process Images" style="points=[[0.25,0,0],[0.5,0,0],[0.75,0,0],[1,0.25,0],[1,0.5,0],[1,0.75,0],[0.75,1,0],[0.5,1,0],[0.25,1,0],[0,0.75,0],[0,0.5,0],[0,0.25,0]];shape=mxgraph.bpmn.task;whiteSpace=wrap;rectStyle=rounded;size=10;html=1;container=1;expand=0;collapsible=0;bpmnShapeType=call;strokeColor=#E07A5F;fontColor=#393C56;fillColor=#F2CC8F;labelBackgroundColor=none;fontFamily=Product Sans;fontSource=https%3A%2F%2Ffonts.googleapis.com%2Fcss%3Ffamily%3DProduct%2BSans;fontSize=14;" vertex="1" parent="1">
          <mxGeometry x="207" y="852" width="250" height="50" as="geometry" />
        </mxCell>
        <mxCell id="nWQ7CsiZABoYEHih55I9-36" value="Display Records" style="text;html=1;align=center;verticalAlign=middle;resizable=0;points=[];autosize=1;strokeColor=none;fillColor=none;fontColor=#393C56;fontFamily=Product Sans;fontSource=https%3A%2F%2Ffonts.googleapis.com%2Fcss%3Ffamily%3DProduct%2BSans;fontSize=14;labelBackgroundColor=none;" vertex="1" parent="1">
          <mxGeometry x="773" y="910" width="114" height="29" as="geometry" />
        </mxCell>
      </root>
    </mxGraphModel>
  </diagram>
</mxfile>
